<?xml version="1.0" standalone="no"?>
<!DOCTYPE svg PUBLIC "-//W3C//DTD SVG 20010904//EN"
 "http://www.w3.org/TR/2001/REC-SVG-20010904/DTD/svg10.dtd">
<svg version="1.0" xmlns="http://www.w3.org/2000/svg"
 width="1280.000000pt" height="1280.000000pt" viewBox="0 0 1280.000000 1280.000000"
 preserveAspectRatio="xMidYMid meet">
<metadata>
Created by potrace 1.15, written by Peter Selinger 2001-2017
</metadata>
<g transform="translate(0.000000,1280.000000) scale(0.100000,-0.100000)"
fill="#000000" stroke="none">
<path d="M9120 12389 c0 -20 -4 -21 -50 -15 l-49 7 -15 -53 c-46 -163 -135
-505 -210 -803 -47 -187 -130 -517 -185 -734 -103 -406 -105 -417 -64 -439 11
-7 -7 -12 -63 -16 -72 -6 -434 -26 -476 -26 -17 0 -18 -19 -18 -261 0 -143 -5
-292 -11 -330 -6 -39 -9 -73 -6 -75 2 -3 197 -64 433 -136 236 -72 430 -132
432 -133 2 -2 8 -145 18 -467 5 -162 4 -218 -4 -218 -15 0 -16 -86 -2 -95 6
-3 10 -22 10 -42 0 -20 7 -44 15 -53 14 -15 7 -20 -82 -53 -54 -21 -125 -41
-158 -45 -51 -6 -60 -10 -63 -29 -3 -18 4 -24 35 -32 56 -16 78 -14 230 18 76
16 204 35 284 41 190 16 179 0 180 262 1 106 4 203 7 214 7 21 8 21 92 -15 78
-34 85 -40 83 -64 -3 -41 -42 -255 -59 -327 -9 -36 -21 -112 -28 -169 l-11
-103 -165 -58 c-121 -43 -171 -66 -187 -85 -48 -55 -16 -92 69 -81 60 8 98 25
98 43 0 22 46 33 143 33 116 1 167 12 237 55 31 19 82 38 117 45 93 19 101 36
103 232 1 84 5 189 9 234 l6 81 130 -54 130 -55 -3 -223 c-2 -181 -5 -225 -17
-235 -9 -7 -15 -29 -15 -51 0 -32 5 -42 25 -51 19 -9 25 -19 25 -45 0 -18 4
-41 9 -51 6 -9 12 -29 15 -43 3 -14 16 -31 30 -37 26 -12 93 -6 113 10 16 13
0 44 -27 53 -16 5 -18 10 -10 25 6 10 10 30 10 43 0 14 7 30 15 37 18 15 20
91 4 107 -12 12 -8 69 21 338 5 50 15 137 21 195 22 212 27 246 40 278 13 31
12 34 -11 52 l-24 18 39 11 c39 10 312 70 590 130 77 17 234 51 348 76 115 25
215 45 223 45 18 0 20 -157 2 -206 -10 -28 -9 -36 5 -52 9 -10 17 -30 17 -45
0 -32 17 -79 33 -89 38 -24 97 6 68 35 -6 6 -11 28 -11 49 0 28 5 40 21 49 17
9 20 16 14 42 -12 56 -17 183 -8 218 9 31 14 35 74 52 54 15 73 16 120 6 l56
-11 6 -147 c4 -80 4 -169 1 -196 -5 -40 -3 -54 10 -64 9 -7 16 -26 16 -42 0
-15 4 -30 10 -34 5 -3 7 -11 4 -18 -8 -21 38 -57 63 -51 29 8 41 44 19 56 -13
7 -15 18 -10 51 4 23 11 47 16 54 5 6 7 31 3 55 -3 24 -1 95 4 158 6 63 16
176 21 250 6 74 16 147 21 162 9 22 7 30 -10 47 -25 25 -26 39 -6 62 10 10 17
39 19 71 4 90 25 109 146 138 84 20 99 26 93 39 -14 28 -15 383 -2 409 9 15
10 31 3 49 -9 27 -46 43 -161 73 -52 13 -51 3 -18 207 14 85 24 157 22 159 -1
2 -365 183 -807 403 -443 220 -843 423 -889 450 -146 85 -245 183 -314 311
-51 95 -66 154 -67 267 0 40 -4 53 -18 57 -9 3 -141 21 -292 41 -151 19 -346
43 -433 55 -204 26 -217 26 -217 -1z m2783 -2660 c-5 -51 -3 -63 10 -71 25
-14 21 -47 -8 -60 -22 -10 -25 -17 -25 -65 l0 -53 -32 1 c-18 0 -69 6 -112 12
l-79 12 0 35 c0 20 3 48 7 64 5 20 2 34 -10 47 -14 15 -16 26 -8 47 8 25 20
30 129 59 66 17 123 32 127 32 3 1 4 -27 1 -60z m-383 -48 c0 -5 -7 -14 -15
-21 -12 -10 -15 -36 -15 -116 0 -99 -1 -104 -22 -109 -115 -27 -1114 -222
-1120 -219 -14 9 -9 22 17 50 14 15 25 39 25 55 0 35 -17 32 384 65 100 8 132
17 127 35 -3 8 -7 37 -9 66 l-4 52 39 11 c92 26 550 138 571 139 12 1 22 -3
22 -8z m-1444 -373 c11 -18 15 -146 5 -152 -12 -8 -514 -107 -518 -102 -3 3
35 218 40 223 2 2 53 8 113 14 60 6 145 14 189 18 121 12 163 12 171 -1z
m-664 -42 c84 7 154 11 156 9 4 -3 -36 -216 -41 -221 -4 -5 -460 156 -468 164
-3 4 -2 25 3 48 l9 41 94 -26 c93 -26 94 -27 247 -15z m-337 -278 l25 -11 0
-202 c0 -259 0 -262 -54 -270 -22 -4 -48 -9 -58 -11 -14 -4 -15 2 -11 38 3 24
12 54 20 67 10 15 13 35 9 60 -10 56 -10 69 3 181 19 173 18 170 66 148z
m1005 -93 c0 -30 -2 -55 -4 -55 -16 0 -176 63 -172 68 6 5 142 40 164 41 8 1
12 -16 12 -54z m-507 -102 c16 -5 17 -24 16 -227 -1 -121 -4 -232 -8 -246 -5
-17 -28 -36 -79 -63 -40 -22 -75 -37 -78 -35 -5 5 17 157 40 273 17 88 19 100
37 213 15 104 16 105 37 97 9 -4 25 -10 35 -12z"/>
<path d="M1595 11856 c-17 -7 -45 -29 -62 -50 -36 -40 -43 -43 -43 -21 0 20
-9 19 -44 -4 -32 -21 -66 -68 -66 -92 0 -9 -9 -24 -20 -34 -20 -18 -20 -17
-20 43 0 67 -6 92 -24 92 -19 0 -90 -103 -92 -135 -3 -46 -21 -85 -37 -79 -18
7 -39 -20 -52 -65 l-11 -36 -24 50 c-14 28 -29 50 -35 50 -5 0 -20 -20 -32
-45 -21 -45 -22 -45 -80 -50 l-58 -5 -3 -179 c-2 -176 -3 -178 -22 -161 -27
24 -50 12 -50 -25 0 -30 -1 -31 -22 -16 -12 9 -30 16 -40 16 -26 0 -25 -80 1
-104 12 -11 18 -29 17 -49 -1 -27 -6 -33 -29 -35 -35 -4 -36 -30 -2 -62 14
-13 25 -26 25 -30 0 -3 -27 -4 -61 -2 -33 3 -65 0 -70 -5 -5 -5 -1 -28 10 -58
15 -39 26 -53 54 -65 19 -8 32 -20 30 -26 -3 -10 17 -21 68 -37 8 -3 20 -25
26 -51 9 -42 9 -46 -8 -46 -23 0 -23 -8 -5 -46 7 -16 16 -41 20 -56 6 -26 4
-27 -36 -30 -37 -3 -43 -6 -40 -23 5 -27 59 -83 105 -106 50 -26 47 -40 -6
-33 -43 6 -117 -15 -117 -34 0 -4 19 -27 42 -50 32 -33 49 -42 75 -42 l33 0 0
-535 0 -535 89 0 c120 0 125 -2 99 -47 -26 -43 -29 -134 -5 -178 33 -64 125
-125 186 -125 10 0 30 -14 47 -31 16 -17 55 -49 87 -70 37 -26 57 -47 57 -59
0 -16 7 -20 38 -20 40 0 162 -37 162 -49 0 -4 6 -15 13 -25 11 -15 17 -17 35
-7 18 10 23 9 28 -4 8 -19 55 -45 84 -45 11 0 31 11 44 23 13 13 34 23 47 23
18 -1 25 5 27 21 2 15 12 25 30 29 15 3 47 12 72 20 25 7 64 16 88 20 32 5 42
11 42 25 0 10 19 31 43 47 23 17 61 48 84 71 22 23 49 41 59 41 31 1 97 35
126 66 55 58 75 167 43 224 -28 50 -24 52 85 45 l100 -8 0 395 c0 217 3 456 6
530 l7 135 28 10 c15 6 39 30 54 53 31 50 25 60 -42 60 -46 0 -55 13 -22 30
11 7 27 26 34 44 7 17 23 40 34 50 25 23 19 36 -16 36 -24 0 -25 2 -19 38 3
20 9 47 12 59 4 15 1 23 -13 27 -19 6 -19 8 -4 56 13 42 21 52 49 61 18 6 38
21 43 33 6 12 23 27 39 33 29 11 70 65 70 92 0 11 -12 13 -57 8 -32 -3 -67 -9
-77 -13 -17 -6 -16 -2 7 28 15 19 27 47 27 63 0 27 -2 27 -40 22 -46 -6 -50 4
-16 36 28 27 51 70 61 116 7 33 6 33 -21 29 -16 -3 -37 -9 -46 -13 -15 -6 -18
-2 -18 19 0 31 -24 35 -52 9 -18 -16 -19 -11 -18 181 1 109 0 200 -3 202 -2 2
-32 7 -66 10 -55 6 -64 10 -77 35 -19 38 -42 37 -56 -1 -13 -39 -32 -34 -36 9
-4 35 -24 50 -46 32 -18 -15 -21 -9 -36 64 -6 33 -26 82 -43 109 -28 44 -32
47 -43 31 -7 -10 -16 -37 -20 -61 -7 -51 -18 -56 -33 -16 -17 44 -77 106 -104
107 -14 1 -39 13 -56 28 -40 33 -109 56 -120 39 -4 -7 -36 -15 -72 -18 -35 -4
-67 -12 -71 -17 -4 -7 -11 -7 -21 1 -8 7 -42 15 -75 18 -36 4 -60 11 -59 18 3
16 -43 18 -78 2z m322 -185 c45 -20 60 -30 52 -38 -8 -8 0 -21 28 -47 21 -19
43 -36 49 -36 11 0 98 -118 100 -135 2 -23 38 -82 58 -95 11 -8 39 -16 61 -19
37 -6 40 -8 47 -49 4 -23 15 -55 24 -71 19 -33 13 -61 -14 -61 -10 0 -23 -5
-30 -12 -16 -16 -15 -97 2 -130 9 -17 13 -41 9 -63 -4 -24 0 -43 12 -61 14
-22 22 -25 51 -21 30 5 34 3 30 -11 -2 -9 -7 -34 -11 -55 -6 -37 -7 -38 -42
-31 -36 7 -36 7 -30 -24 7 -35 -12 -57 -43 -49 -17 4 -20 0 -20 -26 0 -18 4
-38 9 -45 12 -19 1 -62 -15 -62 -11 0 -14 20 -14 89 0 75 -4 95 -25 135 -14
26 -25 60 -25 75 0 16 -7 34 -15 41 -8 7 -12 16 -9 21 3 5 0 9 -7 9 -19 0 -38
-32 -39 -64 0 -16 -11 -48 -25 -72 l-25 -42 -6 -451 -7 -451 -46 0 c-25 0 -52
-4 -59 -9 -22 -14 -9 -44 23 -54 40 -13 62 -33 74 -68 9 -27 8 -31 -14 -39
-30 -12 -35 -50 -6 -50 12 0 23 -11 29 -30 6 -16 23 -41 37 -54 35 -32 29 -58
-13 -67 -40 -8 -38 -6 -45 -47 -6 -28 -3 -34 19 -42 25 -10 54 -62 54 -99 0
-17 -5 -19 -37 -14 -20 3 -44 14 -55 25 -11 11 -32 18 -59 18 -33 0 -47 -6
-70 -31 l-29 -31 0 68 c0 82 25 144 67 170 15 10 30 19 32 21 2 2 -4 12 -15
24 -18 20 -41 21 -88 3 -18 -7 -19 -3 -13 59 7 79 28 124 62 133 27 7 32 23
13 42 -7 7 -8 12 -4 12 5 0 3 7 -4 15 -7 8 -20 15 -29 15 -10 0 -25 6 -35 13
-18 13 -17 15 10 40 16 15 34 42 40 60 7 20 17 31 27 29 8 -1 18 2 22 8 11 18
-5 50 -26 50 -45 0 -2 69 60 93 75 31 62 64 -27 69 l-57 3 0 445 c0 411 -2
448 -19 480 -25 48 -56 142 -50 152 3 4 -1 8 -8 8 -18 0 -48 -52 -48 -82 0
-12 -11 -41 -25 -63 l-24 -40 -1 -295 c0 -162 -3 -366 -7 -452 l-6 -157 -61
-3 c-53 -3 -61 -6 -61 -23 0 -14 14 -26 47 -42 26 -12 55 -34 65 -49 17 -26
16 -27 -10 -46 -31 -23 -35 -48 -8 -48 12 0 21 -10 26 -27 3 -15 23 -42 43
-61 34 -33 35 -35 17 -48 -10 -8 -27 -14 -36 -14 -21 0 -24 -5 -34 -47 -6 -29
-4 -33 14 -33 31 0 48 -37 54 -118 l4 -74 -34 7 c-69 13 -106 -23 -50 -50 18
-8 41 -29 51 -45 18 -32 33 -156 22 -185 -5 -15 -9 -14 -26 8 -38 48 -122 56
-147 14 -4 -8 -27 -17 -49 -20 l-41 -7 7 40 c8 42 34 80 56 80 19 0 26 17 15
37 -5 10 -12 26 -15 36 -4 11 -16 17 -36 17 -43 0 -51 27 -17 54 14 12 33 38
41 58 11 26 21 36 31 32 30 -12 30 28 0 53 l-28 24 20 27 c10 15 38 36 61 47
77 37 59 75 -36 75 l-54 0 3 448 3 447 -26 55 c-15 30 -29 66 -32 80 -3 14
-10 32 -16 40 -9 13 -13 11 -30 -10 -11 -14 -20 -37 -20 -53 0 -15 -11 -44
-25 -65 -14 -21 -26 -49 -27 -63 -2 -19 -7 -25 -20 -21 -9 2 -30 -5 -47 -17
-42 -30 -45 -26 -16 22 35 60 33 70 -13 65 l-38 -3 1 45 c0 42 2 45 28 48 20
3 27 9 27 25 0 13 6 32 14 43 8 11 14 36 14 55 -1 19 4 60 11 92 15 70 10 87
-24 87 -32 0 -43 25 -21 49 10 11 21 41 24 68 7 47 8 48 49 54 23 3 52 14 64
25 36 31 78 78 79 88 0 4 14 24 30 43 17 18 30 43 30 53 0 14 12 25 41 36 26
11 49 30 65 55 13 22 30 39 38 39 7 0 19 7 27 16 20 24 71 42 104 37 17 -3 58
-18 92 -32z m-567 -1135 c-9 -8 -11 -6 -9 9 2 11 0 25 -4 32 -4 6 -2 24 5 40
12 28 13 27 16 -21 2 -28 -2 -54 -8 -60z m2 -411 l-3 -305 -49 0 c-44 0 -50 3
-50 21 0 11 -5 29 -11 41 -11 20 -11 20 -35 -3 -24 -22 -24 -22 -24 -2 0 13
13 29 35 42 19 11 40 33 47 48 6 15 20 47 30 70 26 56 18 65 -40 48 -26 -8
-48 -15 -49 -15 -2 0 -3 8 -3 18 0 9 13 25 29 34 33 18 66 75 77 132 l7 39
-29 -7 c-16 -4 -44 -19 -61 -32 l-33 -25 0 24 c0 60 11 83 46 96 18 7 43 24
55 39 18 23 40 39 59 41 3 1 4 -136 2 -304z m952 248 c21 -17 51 -35 67 -38
25 -6 29 -12 29 -38 0 -18 3 -50 6 -72 l6 -40 -29 31 c-33 37 -69 58 -88 50
-11 -4 -11 -15 2 -63 8 -31 21 -70 29 -85 18 -35 18 -36 -11 -30 -29 5 -29 6
-10 -48 8 -23 15 -56 15 -73 0 -22 10 -40 42 -69 23 -21 38 -41 34 -45 -4 -5
-14 0 -21 11 -17 23 -32 14 -40 -24 -6 -28 -10 -30 -48 -30 -73 0 -70 -17 -62
319 7 276 9 300 24 289 9 -7 33 -27 55 -45z m-999 -638 c11 -7 27 -24 34 -39
14 -24 13 -28 -7 -42 -28 -19 -29 -54 -2 -61 11 -3 20 -12 20 -20 0 -9 16 -31
36 -49 19 -19 34 -42 32 -51 -4 -19 -18 -26 -34 -15 -20 13 -136 235 -141 270
-6 32 -5 34 18 27 13 -4 33 -13 44 -20z m1023 -23 c4 -37 -12 -69 -89 -180
-46 -66 -60 -81 -65 -67 -4 10 -3 23 2 30 5 6 24 33 43 58 19 26 41 47 48 47
22 0 14 29 -12 46 -33 21 -32 29 10 71 40 40 59 39 63 -5z m-1080 -104 c16
-29 33 -64 37 -78 4 -14 18 -38 31 -53 25 -29 32 -71 14 -82 -17 -11 -11 -22
19 -34 15 -7 34 -24 40 -38 15 -34 26 -143 14 -143 -10 0 -53 83 -53 103 0 7
-9 18 -20 24 -10 7 -22 29 -26 49 -4 21 -17 53 -30 72 -17 25 -24 49 -24 83 0
36 -4 49 -14 49 -17 0 -39 60 -30 83 3 10 8 17 9 17 2 0 17 -24 33 -52z m1117
-5 c-8 -46 -12 -53 -30 -53 -9 0 -15 -19 -17 -62 -5 -64 -35 -157 -62 -187
-10 -11 -13 -30 -9 -62 3 -26 0 -55 -6 -68 -11 -20 -13 -20 -38 -4 -24 16 -25
21 -20 76 6 66 31 110 66 115 26 4 27 18 1 59 l-20 33 30 34 c17 18 30 37 30
42 0 14 64 114 73 114 5 0 6 -17 2 -37z m85 9 c0 -17 -8 -32 -21 -40 -21 -13
-21 -12 -15 15 7 26 23 53 32 53 2 0 4 -12 4 -28z m-1297 -12 c3 -11 1 -20 -4
-20 -5 0 -9 9 -9 20 0 11 2 20 4 20 2 0 6 -9 9 -20z m1297 -215 l0 -85 -66 0
c-49 0 -65 3 -61 13 4 6 16 38 29 69 22 55 29 61 96 87 1 1 2 -37 2 -84z
m-1215 -5 c19 -38 35 -72 35 -75 0 -3 -29 -5 -65 -5 l-65 0 0 75 0 75 30 0
c27 0 33 -7 65 -70z m345 -216 c18 -18 33 -24 55 -22 28 3 30 1 28 -27 -3 -39
-36 -65 -83 -65 -63 0 -101 67 -68 120 17 27 40 25 68 -6z m500 7 c16 -31 12
-79 -10 -101 -45 -45 -140 -12 -140 49 0 25 3 27 29 23 22 -3 35 2 53 21 28
30 54 33 68 8z m-716 -32 c14 -28 14 -30 -2 -27 -10 2 -18 14 -20 31 -4 35 3
34 22 -4z m828 -31 c-7 -7 -12 -8 -12 -2 0 14 12 26 19 19 2 -3 -1 -11 -7 -17z"/>
<path d="M4670 11824 c-19 -7 -53 -13 -76 -13 -59 -1 -139 -27 -221 -72 -120
-66 -200 -88 -369 -103 -159 -15 -170 -18 -246 -73 -57 -42 -92 -108 -108
-210 -18 -114 1 -257 90 -658 50 -228 70 -416 70 -660 0 -353 39 -534 138
-637 l35 -37 -12 -57 c-15 -78 -14 -170 3 -230 24 -80 40 -212 28 -227 -7 -8
-7 -27 0 -59 10 -40 8 -58 -10 -120 -25 -83 -27 -110 -10 -141 7 -14 12 -86
13 -202 2 -189 14 -271 61 -435 44 -154 67 -298 68 -420 0 -99 -4 -123 -25
-175 -21 -51 -28 -61 -54 -65 -26 -4 -30 -10 -33 -42 -4 -41 24 -78 58 -78 16
0 19 -5 14 -28 -7 -33 7 -46 52 -55 59 -11 94 40 59 87 -13 17 -12 22 12 50
36 43 52 85 69 180 24 138 16 251 -41 602 -41 247 -28 419 36 500 16 20 29 42
29 48 1 6 17 21 37 34 l36 23 47 -46 c47 -46 89 -65 146 -65 19 0 34 -6 38
-15 8 -22 38 -18 95 12 l51 26 26 -24 c65 -61 85 -144 104 -416 12 -175 27
-333 40 -423 28 -192 33 -631 8 -646 -10 -6 0 -73 13 -90 5 -6 7 -18 3 -27 -3
-8 2 -27 11 -41 36 -55 115 -23 115 46 0 15 5 30 11 34 26 15 50 99 64 216 8
72 16 274 19 488 5 386 13 483 51 638 26 101 33 111 117 167 91 60 285 91 379
60 28 -10 53 -23 56 -31 8 -22 44 -17 50 7 5 19 11 21 51 15 25 -3 48 -9 51
-12 14 -13 20 -193 21 -634 1 -392 3 -479 15 -500 8 -14 14 -41 15 -60 0 -47
15 -60 67 -60 46 0 63 17 63 64 0 14 4 27 9 31 6 3 10 69 10 148 0 138 20 383
61 717 11 91 20 188 20 216 l0 51 74 7 c83 7 122 1 130 -20 7 -19 95 -19 102
0 8 21 48 33 150 45 50 6 135 24 189 40 l97 30 29 -21 c23 -18 31 -19 44 -8 8
7 15 18 15 25 0 8 16 19 36 25 89 30 201 -23 253 -120 82 -155 82 -293 1 -617
-52 -204 -67 -325 -53 -435 12 -97 54 -202 99 -243 26 -24 27 -29 16 -57 -10
-26 -9 -36 3 -55 29 -43 105 -19 105 33 0 12 14 27 38 39 32 17 37 25 37 55 0
29 -4 36 -23 38 -13 2 -29 16 -38 35 -9 18 -27 43 -40 57 -34 36 -55 95 -54
148 1 26 1 61 1 77 -1 33 17 91 90 297 91 256 113 378 99 538 -5 68 -5 111 2
123 7 14 5 23 -8 38 -23 26 -27 243 -3 245 7 1 21 2 30 3 40 3 27 70 -18 90
-13 6 -35 11 -48 11 -49 0 -55 8 -55 77 0 57 -3 67 -27 89 -43 40 -72 52 -208
84 -265 63 -616 100 -958 100 l-187 0 -24 54 c-13 29 -29 57 -35 60 -6 4 -11
18 -11 31 0 13 -5 36 -12 50 -9 21 -8 35 7 77 15 42 17 69 12 162 -6 116 -34
239 -117 516 -23 74 -43 164 -46 200 -2 36 -6 88 -9 115 -3 28 -10 140 -16
250 -21 396 -82 625 -198 744 -58 60 -105 84 -213 112 -105 28 -268 100 -392
174 -109 65 -162 84 -248 87 -45 2 -63 7 -72 20 -12 21 -27 21 -76 2z m250
-2608 c19 -1 59 -14 88 -28 l54 -26 -74 -6 c-40 -3 -122 -8 -183 -12 -155 -8
-359 -47 -464 -89 -48 -19 -91 -35 -95 -35 -3 0 -6 11 -6 25 0 13 -9 39 -20
57 -11 18 -20 45 -20 60 0 42 34 47 237 33 77 -6 130 -4 170 4 83 17 213 30
248 24 17 -2 46 -6 65 -7z m650 0 c47 1 129 3 182 5 88 4 98 2 112 -16 9 -11
16 -23 16 -27 0 -5 -156 -8 -347 -8 l-348 0 26 26 c23 22 30 24 48 15 17 -10
26 -9 44 4 18 14 35 15 102 9 44 -5 118 -8 165 -8z"/>
<path d="M8880 6946 c-205 -59 -349 -107 -355 -116 -4 -6 -15 -10 -26 -10 -11
0 -22 -7 -25 -15 -4 -10 -20 -15 -44 -15 -37 0 -37 -1 -73 -79 l-35 -79 -35 8
c-43 9 -53 3 -63 -35 -14 -60 -494 -1223 -520 -1261 -44 -65 -100 -64 876 -9
140 8 281 15 313 15 56 0 57 -1 57 -27 -1 -16 -7 -39 -15 -53 -22 -39 -18 -72
16 -124 30 -45 34 -47 66 -41 24 4 40 2 52 -8 18 -16 1245 -277 1302 -277 31
0 38 5 47 28 9 23 242 1400 242 1431 0 6 -11 11 -24 11 -30 0 -40 35 -38 131
l2 66 -67 7 c-179 18 -1050 170 -1067 186 -5 5 -4 27 4 53 10 39 10 50 -7 88
-25 57 -76 101 -150 130 -48 19 -80 24 -188 26 -122 2 -137 0 -245 -31z"/>
<path d="M1768 6852 c-23 -3 -27 -9 -33 -52 -6 -43 -10 -49 -33 -52 -18 -2
-31 -12 -40 -30 -8 -16 -21 -28 -32 -28 -31 0 -40 -30 -22 -72 12 -28 23 -38
39 -38 17 0 23 -7 29 -35 3 -19 10 -32 15 -29 10 6 12 -108 3 -143 -5 -18 -14
-23 -39 -23 -18 0 -35 5 -37 11 -3 8 -14 7 -35 -5 -39 -20 -49 -20 -33 -1 6 8
9 23 5 34 -15 47 -108 33 -150 -23 -30 -40 -31 -50 -4 -88 22 -31 73 -58 108
-58 30 0 53 29 46 57 l-6 24 33 -17 c22 -11 33 -13 36 -5 2 6 19 11 38 11 l34
0 0 -74 c0 -40 -3 -88 -6 -105 -6 -29 -9 -31 -50 -31 -23 0 -46 4 -49 10 -4 6
-17 4 -36 -6 -29 -15 -31 -14 -25 3 10 31 -16 55 -57 55 -46 0 -81 -22 -103
-63 -20 -40 -5 -83 40 -110 58 -35 135 -15 121 32 -8 23 -2 24 29 3 16 -10 26
-12 31 -5 3 6 28 11 54 11 38 0 50 -4 53 -17 9 -38 -44 -1202 -56 -1221 -3 -5
-33 -13 -67 -16 -227 -26 -439 -179 -549 -397 -40 -78 -60 -164 -60 -256 0
-93 16 -152 70 -265 34 -70 40 -92 40 -148 0 -63 -13 -100 -44 -123 -7 -5 0
-16 18 -32 30 -24 30 -24 57 -4 158 112 228 -240 119 -593 -43 -138 -146 -199
-257 -153 -20 8 -37 14 -38 13 -1 -2 -9 -16 -17 -31 -13 -26 -12 -32 10 -75
30 -59 26 -94 -23 -207 -66 -154 -88 -260 -89 -425 -1 -220 38 -330 162 -462
137 -145 354 -238 629 -268 79 -9 101 -15 147 -45 30 -19 57 -35 60 -35 3 0
31 16 62 36 48 31 71 38 138 45 104 12 266 52 355 88 198 82 340 226 396 403
60 190 35 450 -65 672 -43 98 -47 140 -18 197 22 43 23 49 9 78 -11 22 -19 30
-30 25 -81 -34 -155 -28 -207 18 -50 44 -74 97 -100 228 -37 178 -41 269 -16
368 27 105 52 142 96 142 19 0 45 -9 60 -21 l26 -20 30 21 30 22 -20 25 c-52
67 -47 148 19 288 52 108 61 145 61 240 0 167 -68 314 -206 450 -114 113 -253
183 -397 200 -32 4 -60 13 -62 19 -2 6 -11 162 -20 346 -8 184 -20 423 -26
530 -6 107 -7 264 -3 348 l7 152 36 0 c21 0 42 -5 48 -11 8 -8 19 -6 40 4 l29
16 -4 -29 c-3 -24 1 -32 22 -41 43 -20 101 3 131 51 l25 40 -25 40 c-30 48
-88 71 -131 51 -21 -9 -25 -17 -22 -41 l4 -29 -29 16 c-21 10 -32 12 -40 4 -6
-6 -27 -11 -48 -11 l-36 0 -6 68 c-11 110 -10 122 13 122 11 0 23 -6 26 -14 5
-12 11 -11 38 5 l33 19 -5 -25 c-14 -78 117 -70 155 9 15 33 16 39 1 70 -22
44 -94 75 -134 57 -22 -9 -25 -17 -22 -41 5 -35 5 -35 -27 -14 -19 12 -27 13
-43 3 -27 -17 -52 -5 -52 25 0 18 4 24 15 20 12 -5 15 2 15 30 0 33 2 36 30
36 23 0 30 4 30 20 0 11 5 20 11 20 6 0 9 14 7 33 -2 24 -8 33 -26 35 -12 2
-29 16 -37 33 -11 20 -23 29 -40 29 -20 0 -25 6 -30 38 -4 20 -8 42 -10 48 -4
13 -54 21 -97 16z"/>
<path d="M4330 5959 c0 -6 9 -24 21 -40 11 -16 23 -44 26 -63 5 -32 3 -35 -22
-38 -40 -4 -53 -30 -32 -62 10 -14 26 -26 37 -26 27 0 26 -32 -4 -145 -30
-110 -63 -195 -160 -407 -92 -202 -123 -298 -131 -409 -9 -105 6 -184 46 -256
16 -29 29 -64 29 -77 0 -53 20 -56 320 -56 151 0 339 -3 418 -7 l142 -6 0
-143 0 -143 -25 -3 -25 -3 -5 -775 c-3 -426 -8 -795 -11 -820 -4 -25 -12 -53
-19 -63 -10 -14 -10 -25 1 -56 10 -29 10 -55 2 -117 -6 -43 -12 -115 -14 -159
-8 -184 -32 -272 -125 -458 -87 -171 -188 -298 -278 -346 -76 -40 -195 -64
-274 -55 -72 8 -87 -3 -87 -62 0 -49 -1 -48 99 -78 52 -15 53 -15 77 9 14 14
54 32 101 46 174 48 325 149 424 284 72 96 105 113 95 48 -3 -21 -11 -81 -16
-133 -26 -238 -85 -497 -140 -613 -25 -53 -30 -77 -28 -119 l3 -53 46 -3 c42
-3 49 0 68 27 12 16 21 41 21 55 0 14 14 63 30 108 17 46 37 130 46 187 8 57
16 106 18 110 2 3 9 42 15 86 6 44 18 107 26 140 8 33 16 69 18 80 2 11 9 32
15 48 7 15 16 37 21 50 6 16 23 27 59 37 28 7 50 18 49 24 -2 12 24 19 39 8 6
-4 29 -34 51 -67 22 -33 83 -103 134 -155 135 -136 265 -218 437 -275 67 -22
85 -32 93 -52 9 -25 11 -26 98 -21 49 3 94 8 100 12 6 4 11 29 11 56 0 61 -8
66 -121 79 -142 17 -285 70 -391 148 -56 41 -156 158 -228 268 -83 129 -200
385 -200 441 0 17 -6 44 -14 60 -11 20 -12 32 -4 47 7 13 8 46 3 91 -4 39 -9
87 -11 106 -2 19 -6 47 -9 61 -4 16 -1 38 9 56 13 27 13 32 0 52 -22 31 -24
106 -27 926 l-2 730 -28 3 -27 3 0 145 0 144 168 -1 c92 -1 235 -4 317 -8 83
-4 155 -3 161 2 7 4 10 17 7 27 -4 16 -15 20 -57 21 -28 1 -54 1 -58 0 -17 -2
-6 14 41 64 89 94 131 214 131 371 0 90 -11 159 -55 359 -43 194 -49 268 -35
399 13 126 10 120 80 128 21 3 25 8 25 38 0 27 -5 37 -22 45 -31 13 -29 21 17
76 46 55 51 79 16 79 -57 0 -138 -60 -167 -124 -10 -20 -15 -21 -187 -18 -97
2 -193 7 -213 13 -23 6 -51 25 -75 52 -49 54 -70 66 -121 67 -57 0 -91 -14
-138 -60 -63 -62 -88 -68 -289 -71 l-179 -4 -23 52 c-15 35 -34 59 -56 73 -36
22 -78 27 -78 9z m555 -243 c60 -25 60 -34 16 -264 -41 -209 -114 -596 -125
-664 -5 -28 -12 -37 -28 -40 -15 -2 -24 -13 -30 -34 -13 -52 -66 -91 -135 -98
-67 -8 -153 6 -196 32 -16 9 -44 34 -61 55 -30 38 -31 42 -30 135 1 126 30
261 94 442 75 214 93 288 99 428 1 22 1 22 181 22 133 0 190 -4 215 -14z m751
-8 c-19 -69 -25 -208 -20 -463 5 -190 3 -296 -4 -331 -29 -135 -91 -232 -176
-276 -52 -28 -209 -37 -271 -16 -40 13 -40 14 -46 73 -11 96 -10 350 1 423 21
145 50 412 50 463 0 68 17 94 84 125 47 22 63 24 220 24 l168 0 -6 -22z m-666
-100 c0 -12 -6 -55 -14 -97 -40 -212 -49 -260 -56 -311 -14 -91 -70 -414 -76
-432 -6 -20 -34 -25 -34 -5 0 12 27 164 49 277 19 97 102 534 108 567 6 35 23
35 23 1z m181 -69 c-5 -46 -15 -138 -22 -204 -9 -82 -15 -112 -20 -95 -24 85
17 418 48 386 2 -1 -1 -40 -6 -87z m-137 45 c-5 -54 -53 -375 -95 -629 -35
-212 -32 -200 -56 -203 -20 -3 -22 0 -18 25 5 29 29 171 66 380 11 65 29 170
40 233 36 203 40 221 52 217 7 -2 11 -13 11 -23z m96 0 c0 -8 -4 -12 -10 -9
-5 3 -10 10 -10 16 0 5 5 9 10 9 6 0 10 -7 10 -16z m-72 -116 c-4 -68 -13
-166 -21 -218 -9 -52 -20 -129 -27 -170 -6 -41 -20 -130 -31 -196 -10 -67 -19
-125 -19 -128 0 -3 -9 -6 -21 -6 -15 0 -19 5 -15 18 3 9 12 60 20 112 8 52 21
136 30 185 20 121 52 330 67 438 6 48 14 87 18 87 3 0 3 -55 -1 -122z"/>
<path d="M11035 4119 c-681 -23 -1917 -55 -2509 -65 l-409 -7 -38 -25 c-22
-14 -39 -33 -39 -42 0 -10 34 -34 88 -63 l87 -48 -3 -680 -3 -680 -37 -37
c-48 -48 -78 -113 -91 -192 -14 -84 8 -194 61 -314 98 -223 120 -283 136 -380
13 -81 14 -112 4 -177 -17 -121 -43 -154 -133 -173 -54 -12 -100 -145 -64
-186 8 -8 16 -27 20 -42 4 -15 13 -29 21 -32 19 -7 139 1 227 15 l67 11 0 52
c0 29 -7 67 -16 84 -12 26 -13 41 -5 89 35 188 32 408 -5 606 -9 45 -17 126
-17 179 -2 96 -2 97 30 130 27 28 32 42 35 88 3 49 6 55 27 58 14 2 26 12 29
25 6 21 6 21 13 -3 4 -14 7 -54 8 -90 1 -37 6 -71 12 -77 7 -7 3 -21 -15 -48
-36 -53 -44 -93 -46 -225 -2 -163 20 -277 85 -440 108 -270 132 -385 122 -567
-8 -159 -42 -234 -126 -287 -45 -29 -81 -98 -81 -157 0 -31 10 -62 34 -104
l33 -60 69 -3 c56 -3 195 15 262 34 8 2 12 25 12 68 0 49 -5 74 -22 103 -23
38 -23 43 -26 478 -5 643 -6 622 21 674 16 32 36 52 67 68 39 21 46 29 52 66
6 31 17 50 43 72 19 17 54 47 78 67 l42 37 0 70 0 71 37 0 c24 0 44 7 53 18 8
9 31 36 51 59 21 25 50 47 72 54 20 6 43 18 50 27 18 24 182 31 201 8 7 -9 22
-16 32 -16 43 0 65 -22 104 -106 28 -62 47 -90 70 -104 55 -34 65 -28 65 36 0
48 4 59 29 85 23 22 39 29 70 29 34 0 46 -6 84 -44 24 -25 55 -48 69 -51 39
-10 87 20 107 66 9 21 21 39 27 39 6 0 19 9 29 20 23 26 31 25 67 -5 16 -14
37 -25 47 -25 32 0 70 25 82 53 21 50 83 65 99 23 23 -62 138 -80 155 -25 14
42 75 27 90 -21 3 -10 23 -30 45 -45 54 -38 82 -29 151 47 46 50 62 61 87 61
47 0 65 -20 58 -64 -7 -41 18 -74 48 -63 16 6 17 -13 13 -274 l-4 -280 -32
-38 c-25 -31 -31 -47 -31 -87 0 -34 4 -49 15 -54 9 -3 29 -18 45 -34 26 -27
34 -29 102 -29 40 1 98 7 128 14 l55 12 2 47 c2 60 -35 122 -78 131 -45 9 -62
54 -67 171 -5 142 17 283 79 504 l54 192 50 -5 c119 -11 137 -18 168 -63 15
-24 35 -43 43 -43 9 0 14 -11 14 -35 0 -43 26 -73 96 -108 30 -15 56 -38 68
-59 10 -18 31 -47 47 -63 61 -65 72 -151 39 -300 -64 -288 -72 -412 -39 -605
l21 -123 -21 -28 c-29 -40 -30 -125 -1 -134 11 -4 28 -17 36 -30 39 -59 137
-81 239 -54 22 6 56 11 75 12 l35 2 -3 65 c-4 77 -44 150 -92 170 -16 7 -35
19 -42 27 -7 8 -22 19 -34 23 -12 5 -32 30 -45 57 -22 44 -24 61 -23 183 0
119 3 144 27 215 15 44 58 133 96 198 99 170 116 219 116 342 0 116 -18 162
-91 243 l-43 48 5 380 c2 208 4 553 4 767 l0 387 39 0 c21 0 66 3 100 6 71 8
80 26 24 49 -21 9 -44 22 -53 29 -20 17 -65 28 -310 71 -113 20 -296 54 -407
75 -219 44 -200 43 -598 29z"/>
</g>
</svg>
